<svg xmlns="http://www.w3.org/2000/svg" width="1024" height="1024"><path d="M491 .589c-51.989 2.839-95.996 11.015-142 26.384C242.277 62.626 149.187 133.868 86.324 228 6.275 347.866-19.652 498.591 15.93 637.234c9.558 37.242 20.754 67.659 36.946 100.373 25.466 51.454 54.257 92.15 93.575 132.27C203.598 928.19 272.594 971.502 349 997.027c39.14 13.076 77.87 21.104 121 25.083 17.397 1.605 66.603 1.605 84 0 43.13-3.979 81.86-12.007 121-25.083C781.723 961.374 874.813 890.132 937.676 796c25.171-37.691 47.66-84.119 61.274-126.5 13.186-41.051 22.064-88.857 23.731-127.788.348-8.133 1.012-15.023 1.476-15.309.464-.287.843-7.271.843-15.521s-.381-14.765-.846-14.477c-.465.287-1.13-6.099-1.476-14.191-2.736-63.89-21.464-135.028-51.554-195.821-25.466-51.454-54.257-92.15-93.575-132.27C820.399 95.807 751.337 52.455 675 26.979 636.611 14.167 599.949 6.391 559.806 2.545 544.347 1.064 503.546-.096 491 .589m-.195 70.288c-6.432.374-12.057 1.054-12.5 1.511-.443.457.207 1.511 1.445 2.343 2.61 1.755 2.934 4.069.69 4.93-.921.354-2.66-.433-4.25-1.922-1.577-1.478-4.243-2.69-6.444-2.93-3.253-.354-3.677-.168-3.181 1.396.334 1.053.023 1.953-.746 2.161-.725.195-3.719 1.152-6.653 2.125-4.822 1.6-5.482 1.621-6.886.217-2.621-2.621-.842-5.061 3.21-4.403 2.563.416 4.043.055 5.732-1.395l2.278-1.955-3.5.535a2871.18 2871.18 0 01-14 2.06c-14.993 2.178-40.39 7.78-56.589 12.482-20.935 6.077-20.135 5.739-21.279 9.019-1.095 3.141-5.132 4.28-5.132 1.449 0-1.903-.998-1.885-5.98.109-2.632 1.053-4.02 2.237-4.02 3.428 0 1.001-.707 2.527-1.571 3.392-2.059 2.058-4.098 2.082-2.394.029 4.736-5.707-10.888-.392-35.035 11.917-8.935 4.554-10.547 5.745-10.816 7.989-.245 2.039-.868 2.636-2.75 2.636-1.339 0-2.434-.489-2.434-1.086 0-1.444-10.546 4.475-26.49 14.866-16.711 10.892-30.597 21.27-29.922 22.363.292.471-.284.862-1.279.869-.995.007-6.243 3.697-11.662 8.201-7.806 6.488-9.481 8.319-8.066 8.815 1.242.436 1.425.85.603 1.359-.651.402-1.184 1.579-1.184 2.615 0 1.037-.843 2.475-1.872 3.196-1.248.874-2.107 3.146-2.573 6.807-.385 3.022-.956 6.388-1.269 7.479-.346 1.205 2.669-.951 7.69-5.5 4.543-4.116 10.344-9.233 12.892-11.37 2.547-2.137 4.517-4.283 4.376-4.768-.141-.485.384-2.414 1.167-4.286 1.439-3.444 4.233-5.798 8.339-7.023 3.597-1.074 2.66 1.3-1.25 3.164-2.119 1.011-3.5 2.392-3.5 3.501 0 1.452 1.295.824 6.25-3.031 18.568-14.446 46.489-31.949 68.75-43.096 8.731-4.372 13.407-7.257 13.236-8.167-.144-.775 1.093-2.175 2.75-3.111 1.858-1.051 3.014-2.511 3.014-3.81 0-1.158.45-1.827 1-1.487 1.403.867 1.247 4.851-.25 6.362-.687.694 2.549-.361 7.193-2.345 41.288-17.637 89.7-29.111 137.557-32.603 17.493-1.276 56.669-.703 72.596 1.063 7.923.878 10.08.813 12.364-.372 2.394-1.242 3.31-1.245 6.78-.02 5.371 1.895 8.117 1.782 10.105-.414 4.65-5.138-1.886-11.628-8.269-8.212-1.428.764-2.02.46-2.913-1.5-.616-1.352-1.692-2.46-2.392-2.461-.699-.001-7.796-.648-15.771-1.437-17.91-1.773-49.592-2.591-65.195-1.684m74.37 11.792c.424 2.201 4.325 2.5 4.325.331 0-.825-1.053-1.649-2.339-1.831-1.814-.257-2.26.08-1.986 1.5m39.118 1.831c-1.536 1.925-3.277 3.5-3.869 3.5-.591 0-2.071 1.06-3.288 2.355l-2.213 2.356 8.334 1.655c4.584.911 12.295 2.745 17.135 4.077 4.84 1.331 9.448 2.172 10.24 1.868 1.418-.544 16.394 4.38 17.368 5.711.275.376 2.975 1.489 6 2.473 3.025.984 8.763 3.036 12.75 4.56 5.604 2.141 7.25 2.449 7.25 1.358 0-1.673 1.182-1.831 2.657-.356 1.725 1.725 11.456.731 12.73-1.3 1.773-2.825-4.627-8.407-12.981-11.321-3.798-1.325-10.446-4.255-14.772-6.51C653.97 90.931 637.568 86 631.944 86c-1.54 0-6.995-1.124-12.122-2.497-5.127-1.374-10.09-2.499-11.029-2.5-.939-.002-2.964 1.572-4.5 3.497m-180.957-.933c-.331.862-.062 2.1.599 2.75.925.913 1.52.749 2.6-.714.771-1.044 1.164-2.281.874-2.75-.872-1.411-3.43-.962-4.073.714m-20.895 8.529c-.373.603 0 1.774.829 2.603 1.971 1.971 5.73.812 5.73-1.766 0-1.472-.701-1.933-2.941-1.933-1.618 0-3.246.493-3.618 1.096m79.059 21.316c-5.631 2.503-7.868 5.997-8.313 12.991-.717 11.263 4.361 17.586 14.129 17.593 2.648.002 5.682-.46 6.741-1.026 1.425-.763 2.741-.609 5.067.594 2.592 1.34 3.29 1.39 3.99.28.792-1.255-.823-3.247-3.303-4.074-.498-.166-.209-1.967.642-4.004 5.797-13.873-6.199-28.023-18.953-22.354m38.5 11.072c0 12.242.054 12.545 2.782 15.599 5.091 5.696 16.565 5.015 19.765-1.174 1.035-2.001 1.453-6.278 1.453-14.859 0-11.383-.111-12.05-2-12.05-1.88 0-2 .667-2 11.066 0 14.391-1.208 16.89-8.177 16.919-2.793.011-4.177-.619-5.75-2.62-1.821-2.314-2.073-4.016-2.073-14 0-10.698-.117-11.365-2-11.365-1.893 0-2 .667-2 12.484m46.984-8.14c-.008.636-.908 7.443-2 15.127-2.402 16.911-2.401 15.529-.003 15.529 2.31 0 2.381-.259 4.476-16.338 1.927-14.786 1.941-14.325-.457-14.952-1.145-.299-2.007-.028-2.016.634m131.766-.326c-3.277 2.024-2.209 6.788 2.5 11.149 3.617 3.35 4.772 3.874 7.75 3.515 2.62-.315 4.129.144 6 1.827 1.55 1.393 4.269 2.433 7.153 2.736 4.132.433 4.795.221 5.929-1.899.779-1.455.915-2.715.348-3.227-1.231-1.112-10.458-5.865-12.68-6.532-.962-.288-1.75-1.369-1.75-2.401 0-1.032-.838-2.635-1.863-3.562-2.268-2.053-10.973-3.097-13.387-1.606m-217.383 1.754c-4.499 3.644-5.657 10.206-2.946 16.694 1.725 4.127 6.661 6.981 10.436 6.034 2.559-.642 2.577-.699.596-1.832-1.154-.659-1.885-1.923-1.678-2.902.332-1.574.677-1.604 3.736-.326 2.558 1.069 3.592 1.125 4.292.234 3.158-4.023 1.811-13.274-2.518-17.285-3.104-2.877-8.766-3.17-11.918-.617m-47.481 2.227c-6.629 3.502-8.815 13.155-4.922 21.73 3.445 7.59 12.194 10.437 20.036 6.519 6.657-3.325 8.953-13.348 5.036-21.977-3.501-7.713-12.264-10.44-20.15-6.272m155.261 14.606c-2.663 11.868-3.041 14.846-1.971 15.525 2.698 1.71 2.406 2.44 5.947-14.88.702-3.437 1.525-6.248 1.827-6.247.303.002 2.8 5.74 5.55 12.75 6.894 17.574 7.713 17.466 12.28-1.627 2.819-11.787 3.193-14.529 2.079-15.235-.748-.473-1.66-.867-2.027-.876-.367-.008-1.635 4.372-2.817 9.735-1.182 5.363-2.392 10.425-2.688 11.25-.639 1.78-.528 2.01-6.553-13.5-3.321-8.546-4.727-11.065-6.303-11.291-1.839-.263-2.34 1.091-5.324 14.396M435.36 123.46c-5.141 3.601-5.513 13.828-.711 19.535 2.114 2.512 3.26 3.005 6.985 3.005 5.414 0 8.892-2.956 9.919-8.431.836-4.456-1.727-11.877-4.859-14.071-2.726-1.909-8.634-1.929-11.334-.038m-43.35 6.705c-4.119 1.09-7.673 2.165-7.897 2.389-.224.224 1.507 7.111 3.847 15.305 3.749 13.129 4.479 14.839 6.147 14.403 2.299-.602 2.314-1.007.286-7.983-1.343-4.618-1.384-5.67-.25-6.388 3.025-1.917 6.508-.796 12.258 3.945 4.4 3.627 6.473 4.72 8.296 4.371l2.43-.465-2.732-2.852c-1.503-1.569-4.47-4.056-6.592-5.527l-3.859-2.674 2.028-2.159c2.697-2.871 2.711-8.847.028-11.53-1.1-1.1-2.413-2-2.918-2-.505 0-1.518-.184-2.25-.408-.733-.224-4.702.484-8.822 1.573m244.445 2.695c-.711 1.728-9.455 27.406-9.455 27.766 0 .115 4.315 1.647 9.588 3.403 7.035 2.344 9.884 2.899 10.7 2.083 1.599-1.599.196-2.543-7.538-5.07-3.712-1.213-6.75-2.776-6.75-3.474 0-1.216 1.986-7.687 2.585-8.421.158-.194 3.293.648 6.968 1.871 5.504 1.831 6.828 1.983 7.522.861 1.118-1.81.41-2.32-6.075-4.379-3.025-.96-5.826-2.039-6.225-2.398-1.061-.954 1.353-8.102 2.736-8.102.647 0 3.821.91 7.053 2.022 6.06 2.085 8.436 2.008 8.436-.273 0-.772-3.888-2.594-9.435-4.421-8.436-2.778-9.507-2.934-10.11-1.468m-244.205 1.259c-3.705 1.069-3.634.867-2.092 6.015 1.355 4.521 3.061 4.858 9.592 1.893 3.246-1.474 4.25-2.484 4.25-4.278 0-4.566-4.11-5.836-11.75-3.63m348.021 1.01c-.896.896-.831 1.989.278 4.644 1.973 4.72 1.829 6.152-.712 7.092-1.909.706-1.072 1.535 7.117 7.05 6.659 4.485 9.587 5.944 10.363 5.168 1.6-1.6-.491-3.265-5.016-3.994-3.211-.518-3.85-1.036-4.116-3.34-.174-1.5-1.299-3.429-2.5-4.288-2.129-1.52-2.136-1.597-.287-2.979 1.656-1.238 2.264-1.204 4.75.264 2.617 1.547 2.982 1.553 4.457.078 1.475-1.475 1.109-1.944-4.48-5.739-7.466-5.07-8.375-5.435-9.854-3.956M349.75 146.186c-3.712 1.695-6.75 3.443-6.75 3.886 0 .443 2.748 6.898 6.107 14.344 5.415 12.005 6.314 13.429 7.927 12.566 1.726-.924 1.685-1.286-.801-7.049-2.218-5.139-2.399-6.216-1.177-6.989 2.873-1.818 7.47-.904 13.181 2.621 3.872 2.39 6.433 3.357 7.77 2.933 1.096-.348 1.993-.957 1.993-1.354 0-.755-9.253-6.58-12.212-7.688-1.574-.589-1.545-.865.355-3.435 2.596-3.511 1.82-8.119-1.855-11.009-3.456-2.718-6.557-2.468-14.538 1.174m322.33 6.064a3901.49 3901.49 0 01-6.367 13.925c-1.942 4.221-3.272 7.933-2.955 8.25 1.873 1.873 4.062.121 6.154-4.925 1.253-3.025 2.851-5.5 3.549-5.5 2.921 0 6.372 4.059 7.018 8.254 1.552 10.089 1.702 10.507 4.155 11.625 2.416 1.101 2.446 1.057 1.844-2.63-1.286-7.869-1.642-9.802-2.12-11.499-.379-1.346.111-1.75 2.12-1.75 5.668 0 9.394-7.634 6.429-13.174-.891-1.664-14.185-8.826-16.383-8.826-.334 0-1.884 2.813-3.444 6.25m-319.043-3.181c-2.455 1.113-4.624 2.185-4.82 2.381-.462.461 3.656 8.55 4.353 8.55 1.026 0 6.952-3.26 8.68-4.776 3.128-2.742 1.649-8.257-2.2-8.202-.853.012-3.558.933-6.013 2.047m408.533-.182c-.301.487.144 1.461.99 2.163.99.822 1.432 2.555 1.239 4.863-.314 3.768 1.469 5.645 2.021 2.127.454-2.899 2.18-2.534 2.18.46 0 2.809 2.069 3.326 4 1 2.462-2.967 3.082-1.488 2.423 5.783l-.659 7.282 10.868 8.793c7.808 6.317 10.959 8.348 11.191 7.217.362-1.763 1.066-1.932 2.985-.715.811.515 1.075 1.76.693 3.279-.438 1.745-.024 2.983 1.442 4.31 2.021 1.829 2.058 1.819 2.136-.544.085-2.577.381-2.053 1.372 2.422.344 1.555 2.296 4.573 4.337 6.706 2.042 2.133 5.012 5.494 6.601 7.469 1.589 1.974 4.289 4.303 6 5.175 1.711.872 6.085 4.786 9.72 8.698 6.384 6.87 6.697 7.067 9.148 5.755 2.179-1.166 3.245-1.124 7.523.297 2.742.911 5.782 2.537 6.757 3.614.975 1.078 1.51 1.959 1.188 1.959-.322 0-.116 1.463.457 3.25.573 1.787 1.134 4.375 1.246 5.75.649 7.934 1.83 11.027 4.452 11.651 5.275 1.257 7.285 5.349 2.627 5.349-2.343 0-1.997.735 5.765 12.25 4.541 6.738 11.175 17.309 14.742 23.492s6.788 11.246 7.157 11.25c1.569.019 1.89-6.069.484-9.195-.815-1.813-1.687-7.417-1.938-12.452l-.455-9.155-8.766-12.845c-12.495-18.309-25.104-34.072-29.446-36.813-5.323-3.36-7.05-5.337-7.05-8.067 0-1.554-2.188-4.732-6.25-9.076-6.031-6.45-6.268-6.593-6.75-4.082-.496 2.581-.545 2.559-6-2.686-4.255-4.091-5.431-5.86-5.197-7.815.386-3.218-3.891-8.444-7.58-9.263-1.498-.333-6.077-2.616-10.177-5.074-4.1-2.458-7.781-4.469-8.179-4.469-.398 0-1.431.707-2.296 1.571-1.428 1.429-1.572 1.315-1.586-1.25-.026-4.652-1.26-5.769-4.953-4.482-2.743.956-3.586.811-6.107-1.053-2.314-1.71-2.925-2.933-2.925-5.852 0-2.059.663-4.239 1.5-4.934.825-.685 1.485-1.752 1.467-2.372-.037-1.272-15.128-12.628-16.781-12.628-.587 0-1.315.399-1.616.887m-85.885 5.647c-.927 1.944-1.685 3.994-1.685 4.556 0 1.686 8.931 5.144 11.574 4.481 2.449-.615 4.204-4.502 2.949-6.533-.56-.907-9.742-6.038-10.805-6.038-.191 0-1.106 1.59-2.033 3.534M717 162.015c-2.068 1.63-2.249 2.133-1.048 2.912.799.517 1.747.759 2.106.537.36-.222 1.91-.882 3.446-1.465 2.675-1.018 2.712-1.122.894-2.499-2.418-1.83-2.424-1.829-5.398.515m-403.656 2.751c-.862.549-.629 4.979.914 17.432 1.974 15.923 2.16 16.649 4.01 15.659 1.678-.898 1.853-1.735 1.299-6.198l-.64-5.159 5.713-3.155 5.713-3.156 3.734 3.001c2.656 2.135 4.338 2.81 5.824 2.338 1.149-.364 2.066-.97 2.038-1.345-.066-.884-25.56-20.188-26.634-20.168-.448.009-1.335.347-1.971.751m392.847 14.261c-4.019 7.136-7.03 13.424-6.691 13.974 1.53 2.475 3.568.134 10.666-12.251 7.208-12.578 7.847-14.747 4.334-14.709-.55.006-4.289 5.85-8.309 12.986m-388.818-3.51c.38 3.234.858 6.047 1.062 6.252.204.204 2.295-.611 4.646-1.81l4.275-2.182-2.428-1.916a258.115 258.115 0 00-5.337-4.07l-2.909-2.154.691 5.88m-33 7.382l-2.036 1.649 3.144 12.226c1.729 6.724 2.99 12.226 2.802 12.226-.188 0-5.004-3.21-10.704-7.133-9.68-6.663-10.5-7.036-12.465-5.659-2.068 1.448-1.954 1.69 6.641 14.087 4.81 6.938 8.97 12.628 9.245 12.644.275.017 1.156-.384 1.957-.891 1.192-.754.555-2.212-3.5-8.017a7043.108 7043.108 0 01-6.444-9.237c-.858-1.236 2.683.648 8.374 4.453 9.096 6.083 12.622 7.313 12.607 4.396-.003-.629-1.337-6.055-2.965-12.058-1.627-6.003-2.585-10.503-2.128-10 .456.503 3.387 4.605 6.513 9.115 3.862 5.573 6.148 8.022 7.134 7.643.799-.306 1.452-.987 1.452-1.514 0-.811-10.811-16.689-15.97-23.454-1.523-1.996-1.744-2.025-3.657-.476m444.95 9.918c-7.248 4.775-13.415 8.925-13.705 9.221-.29.296.288 1.047 1.284 1.669 1.472.919 2.622.594 6.142-1.736l4.33-2.867 5.063 3.636c2.785 2 5.196 3.722 5.358 3.826.162.105-.237 2.305-.888 4.889-1.017 4.039-.957 4.924.431 6.312.888.888 1.801 1.416 2.029 1.173.228-.242 1.919-7.773 3.759-16.735 2.903-14.143 3.149-16.42 1.859-17.235-.817-.517-1.71-.916-1.985-.888-.275.028-6.43 3.959-13.677 8.735m6.445.497c-2.602 1.752-4.734 3.411-4.737 3.686-.01.82 7.119 5.183 7.631 4.671.81-.81 3.109-11.675 2.457-11.607-.341.035-2.748 1.497-5.351 3.25M196.11 203.558c-9.457 9.141-11.873 12.02-11.555 13.773.26 1.432-.298 2.652-1.577 3.45-1.577.986-1.987.981-2.021-.023-.023-.692-1.814.76-3.98 3.227-3.648 4.157-3.792 4.539-1.957 5.218 2.44.903 2.593 4.355.251 5.665-1.618.905-1.602 1.109.241 3.145 1.967 2.173 1.966 2.182-.381 4.082-2.529 2.048-6.625 2.533-7.631.905-.368-.595.823-1 2.941-1 2.825 0 3.559-.39 3.559-1.893 0-2.423-2.797-3.518-4.788-1.874-1.335 1.102-1.46.877-.965-1.729l.57-2.996-1.909 2.357c-1.049 1.296-1.908 3.1-1.908 4.009 0 .908-1.012 2.096-2.25 2.639-1.238.543-2.925 2.44-3.75 4.215-.825 1.776-1.95 3.247-2.5 3.269-1.469.059-25.5 35.368-25.5 37.467 0 .295.845.536 1.878.536 1.032 0 2.437.675 3.122 1.5 1.922 2.316-.508 4.5-5.007 4.5-4.532 0-4.569.05-14.457 19.438C92.823 359.933 77.929 409.482 71.277 464c-2.528 20.714-2.522 77.362.009 98 8.582 69.971 30.377 131.438 66.697 188.102 11.933 18.616 19.674 28.895 21.774 28.913 1.159.01 1.348.267.564.766-.799.508 1.018 3.486 5.633 9.234 3.747 4.667 7.202 8.492 7.679 8.5 1.797.032 3.367 1.67 3.367 3.513 0 2.267 26.778 30.042 40.962 42.488 21.337 18.722 43.061 34.651 66.213 48.552l13.072 7.848 1.908-2.208 1.907-2.208-.281 3c-.272 2.899.141 3.217 12.219 9.422 53.076 27.271 119.376 44.824 175.814 46.547 11.062.338 11.337.293 12.385-2.007 1.324-2.906 3.599-3.874 5.465-2.326 1.167.969.865 1.436-1.747 2.701l-3.158 1.53 2.37.913c2.936 1.13 33.357.085 52.371-1.799 22.888-2.269 45.343-6.068 59.5-10.068 3.025-.854 6.625-1.726 8-1.936 9.793-1.497 41.412-12.172 62-20.931 29.27-12.453 68-33.895 68-37.647 0-1.556.532-1.951 2.25-1.67 2.757.45 16.162-8.482 33.231-22.141 6.589-5.273 12.627-10.087 13.416-10.696 1.213-.937.976-1.791-1.528-5.5-1.63-2.416-3.285-5.23-3.678-6.255-.824-2.146.11-2.721-12.191 7.504-10.953 9.105-35.043 26.228-46.249 32.874-5.087 3.017-9.25 6.02-9.25 6.673-.001.653-.789 1.158-1.751 1.121-.962-.036-7.624 3.04-14.803 6.837-7.178 3.797-15.953 8.181-19.5 9.742-3.546 1.561-6.903 3.403-7.461 4.094-.558.691-2.5 1.582-4.315 1.98-1.816.399-7.621 2.483-12.901 4.632-5.281 2.148-10.201 3.906-10.935 3.906s-1.335.765-1.335 1.7c0 1.199-.313 1.387-1.062.638-.749-.749-4.652.095-13.25 2.866-24.587 7.922-52.189 13.757-82.688 17.482-20.393 2.491-73.276 2.492-94.199.002-33.646-4.003-57.565-9.302-88.801-19.67-64.86-21.529-119.009-54.966-167.567-103.472-37.891-37.85-65.519-76.978-86.368-122.317-21.205-46.112-31.817-85.152-38.254-140.729-1.942-16.776-1.641-65.562.516-83.5 4.297-35.732 11.216-66.37 21.679-96 3.399-9.625 6.25-18.372 6.337-19.437.106-1.306-.658-2.135-2.343-2.541-1.632-.394-2.617-1.421-2.838-2.956-.347-2.411.23-2.486 6.726-.878.769.19 4.103-5.744 8.534-15.188 11.281-24.047 29.037-53.763 43.909-73.488 2.739-3.632 4.1-6.246 3.46-6.641-.605-.374-.16-.937 1.044-1.319 1.155-.366 5.924-5.253 10.598-10.859 4.675-5.606 10.75-12.668 13.501-15.693 2.751-3.025 5.017-6.01 5.034-6.633.018-.624.903-1.361 1.967-1.64 1.331-.348 1.778-1.109 1.431-2.436-.281-1.074.191-2.509 1.064-3.233 2.551-2.117 1.822-3.058-2.371-3.058-2.168 0-4.221-.453-4.563-1.007-.658-1.065-.253-1.247 5.845-2.625 3.792-.857 3.845-.935 4.193-6.118.193-2.887.167-5.25-.058-5.25s-5.79 5.201-12.366 11.558m569.12-8.287c-.539.676-1.758 2.76-2.709 4.631-1.567 3.082-1.581 3.485-.146 4.288 2.397 1.341 3.06.633 2.752-2.94-.449-5.205 2.407-4.156 3.806 1.398.829 3.292 1.482 4.337 2.237 3.582.586-.586 2.588-.819 4.448-.517 1.86.302 3.382.203 3.382-.22 0-.892-8.713-9.104-11.145-10.504-1.113-.64-1.962-.549-2.625.282M240 210.097c-2.475 2.158-4.369 4.588-4.21 5.398.17.864-.248 1.267-1.011.974-1.606-.617-14.471 12.285-14.946 14.987-.189 1.076-1.342 2.201-2.563 2.5-4.245 1.04-26.832 28.165-42.505 51.044-10.576 15.438-24.508 39.774-31.725 55.413-4.91 10.641-5.271 11.878-3.718 12.747 2.153 1.205 1.133 3.119-1.257 2.361-1.442-.458-2.37.958-5.049 7.709-18.768 47.279-28.075 95.826-28.33 147.77-.126 25.725.468 30.658 3.883 32.213 1.566.714 2.431 1.94 2.431 3.448 0 2.925-.674 2.944-3.056.089l-1.877-2.25-.034 3.53c-.018 1.941.635 8.916 1.451 15.5 8.703 70.186 35.092 135.217 78.392 193.176 4.535 6.07 8.434 10.325 9.624 10.5 1.31.192 2 1.059 2 2.51 0 2.478 12.029 16.479 26.372 30.694 8.893 8.814 9.015 8.892 11.309 7.217 1.275-.931 3.793-2.767 5.595-4.078l3.277-2.385-4.777-4.03c-6.179-5.213-26.19-27.101-35.321-38.634-3.918-4.95-8.212-10.284-9.54-11.853-1.328-1.569-2.415-3.02-2.415-3.224 0-.68-15.385-22.912-16.286-23.535-.487-.336-.878-1.011-.869-1.5.027-1.547-5.951-11.388-6.918-11.388-.51 0-.927-.472-.927-1.05 0-2.046-11.826-24.792-12.544-24.126-.401.372-.521.009-.265-.807.255-.816-1.219-5.127-3.276-9.58-6.846-14.818-16.295-42.145-20.897-60.437-18.975-75.423-16.19-151.972 8.13-223.47 20.021-58.861 52.124-109.983 97.13-154.675l14.965-14.862-2.225-5.246c-1.224-2.886-2.516-5.546-2.872-5.911-.355-.366-2.671 1.102-5.146 3.261m536.161 9.153C790.87 232.296 791.792 233 794.186 233c3.125 0 6.466 2.427 8.345 6.061 1.239 2.394 1.269 2.939.164 2.939-.747 0-1.939-1.087-2.65-2.416-.711-1.328-2.163-2.643-3.226-2.921-2.468-.646-1.726.369 7.204 9.837 14.253 15.113 29.993 35.486 42.302 54.751 4.129 6.463 7.688 11.211 7.907 10.552.235-.705 1.574.119 3.249 1.999 1.567 1.759 3.54 3.198 4.384 3.198 1.174 0 1.259.276.362 1.173-.851.851-1.809.883-3.49.117-1.944-.886-.834 1.867 6.886 17.077 25.746 50.721 39.159 100.947 42.382 158.702 4.892 87.664-23.012 180.332-75.565 250.947l-7.205 9.681 3.928 5.152c2.16 2.833 4.112 5.151 4.338 5.151 1.695 0 22.566-30.341 32.832-47.731 15.308-25.932 35.879-72.947 34.027-77.772-.315-.823-.113-1.497.451-1.497 2.316 0 10.562-30.489 14.646-54.155 4.603-26.664 5.89-41.675 5.946-69.345.059-28.559-1.078-43.037-5.427-69.122-6.073-36.422-17.034-71.476-32.717-104.628-4.557-9.633-5.946-11.75-7.709-11.75-2.09 0-4.55-1.679-4.55-3.106 0-.389.9-.471 2-.184 1.293.338 2 .031 2-.869 0-1.528-10.45-19.932-18.143-31.951-4.17-6.516-5.208-7.545-7.223-7.16-1.813.346-2.492-.08-2.956-1.854-.332-1.27-.101-2.615.515-2.995 1.297-.802-2.466-6.262-15.08-21.881-11.435-14.16-22.256-26.03-23.198-25.448-.424.263-1.025-.324-1.336-1.302-.871-2.746-17.579-18.971-17.579-17.072 0 1.416-.484 1.486-3.609.527-1.984-.609-3.832-1.692-4.107-2.406-.342-.892-2.662-1.299-7.397-1.299h-6.9l8.174 7.25m135.886 102.977c-.06 3.492-3.926 6.164-8.045 5.56-1.651-.242-3.002-.178-3.002.143 0 .321 2.403 5.981 5.34 12.577 8.895 19.979 20.769 54.52 24.085 70.064.582 2.726.986 3.022 3.603 2.638 1.621-.238 3.679-.152 4.572.191 2.337.897.182 3.194-3.731 3.976-2.328.466-2.932 1.018-2.459 2.25 1.002 2.612 5.322 26.838 7.02 39.374 17.115 126.313-26.353 256.922-116.674 350.569l-11.64 12.069 2.963 1.75c1.63.962 3.946 3.08 5.148 4.705l2.184 2.954 8.376-8.273c54.021-53.361 96.442-128.781 114.67-203.874 14.55-59.94 16.707-114.809 6.994-177.9-5.597-36.353-21.836-87.806-36.782-116.547-2.287-4.397-2.581-4.647-2.622-2.226m-714.392 50.602c-1.523 1.683-1.655 12.857-1.655 140.345 0 132.922.074 138.583 1.829 140.171 1.667 1.509 8.479 1.655 77.34 1.655 71.35 0 75.927-.106 83.065-1.932 32.965-8.431 57.668-38.905 60.403-74.514 1.252-16.301-2.955-34.629-11.343-49.42-4.463-7.87-14.157-19.116-20.659-23.966l-2.865-2.136 5.178-5.665c16.844-18.43 21.172-52.401 10.098-79.257-9.265-22.466-28.478-38.983-52.456-45.094-7.558-1.926-11.009-2.016-77.595-2.016-66.24 0-69.767.09-71.34 1.829m214.786 10.59c-1.818 1.33-1.941 2.793-1.941 23.081s.123 21.751 1.941 23.081c1.591 1.163 8.4 1.419 37.733 1.419h35.792l.267 110.347c.222 91.766.498 110.625 1.639 112 1.207 1.453 4.256 1.653 25.179 1.653 20.309 0 24.037-.231 25.378-1.571 1.409-1.41 1.571-12.944 1.571-112V431h37.309c30.643 0 37.656-.254 39.25-1.419 1.818-1.33 1.941-2.793 1.941-23.081s-.123-21.751-1.941-23.081c-2.911-2.128-201.207-2.128-204.118 0m221.959-.654c-3.358 2.242-3.4 3.942-3.385 135.919.011 103.458.279 131.339 1.279 133.316l1.265 2.5 96.386.255c88.622.235 96.534.121 98.221-1.405 1.669-1.511 1.833-3.554 1.819-22.755-.009-11.602-.355-21.629-.771-22.282-1.965-3.092-6.987-3.313-75.279-3.313H685v-67l52.25-.015c40.117-.011 52.831-.308 54.75-1.279l2.5-1.265v-44.882l-2.5-1.265c-1.919-.971-14.633-1.268-54.75-1.279L685 488v-56h68.929c60.178 0 69.12-.192 70.44-1.512 2.285-2.285 2.839-8.428 2.468-27.402-.327-16.745-.408-17.323-2.698-19.176-2.286-1.85-5.301-1.91-95.5-1.895-51.226.009-93.634.346-94.239.75M252 451.511v34.603l36.274-.307 36.275-.307 6.64-3.271c7.637-3.761 12.04-8.312 15.658-16.183 3.23-7.027 3.593-19.624.802-27.766-2.374-6.925-9.257-14.45-16.447-17.98l-5.702-2.8-36.75-.296-36.75-.296v34.603M.402 512c0 8.525.154 12.013.341 7.75.188-4.263.188-11.238 0-15.5-.187-4.262-.341-.775-.341 7.75M252 569.509v39.613l40.75-.344c44.626-.377 44.407-.35 53.592-6.67 4.887-3.362 10.791-11.417 13.271-18.108 1.065-2.872 1.7-7.758 1.755-13.505.081-8.392-.164-9.532-3.59-16.747-4.443-9.357-10.982-16.24-19.3-20.317L332.5 530.5l-40.25-.302-40.25-.303v39.614m542.445 190.45c-3.112 1.26-8.166 7.496-8.943 11.033-1.441 6.56 4.172 12.816 10.239 11.412 1.518-.351 5.49-2.386 8.829-4.521 7.174-4.59 10.005-4.909 11.643-1.316.958 2.104.853 3.156-.582 5.821-2.528 4.693-6.915 7.057-10.669 5.749-2.56-.893-3.099-.749-4.082 1.088-.928 1.733-.804 2.357.685 3.446 3.947 2.886 10.595 1.036 15.563-4.332 5.979-6.46 6.631-12.734 1.824-17.541-2.593-2.593-3.605-2.974-6.772-2.549-2.048.275-6.596 2.356-10.107 4.625-6.86 4.435-9.124 4.974-11.062 2.639-1.683-2.027-.601-5.651 2.661-8.913 2.093-2.092 3.498-2.642 6.148-2.406 4.028.359 6.865-2.496 4.18-4.207-1.813-1.156-6.735-1.17-9.555-.028m-39.372 37.103c-7.852 5.688-8.985 13.845-3.109 22.385 3.727 5.418 9.314 9.399 14.331 10.214 7.692 1.248 17.705-7.253 17.705-15.031 0-6.164-6.576-15.735-13.2-19.212-4.699-2.467-10.954-1.813-15.727 1.644m1.975 4.736c-4.163 4.163-4.186 9.33-.068 15.016 6.418 8.859 17.146 9.873 20.483 1.937 3.038-7.226-4.627-18.293-13.493-19.482-3.342-.448-4.292-.101-6.922 2.529m-41.858 9.782c-2.163 1.514-2.176 1.635-.491 4.488 1.979 3.349 2.234 3.433 4.791 1.563 1.826-1.335 1.823-1.447-.103-4.488-1.875-2.963-2.087-3.041-4.197-1.563M255 817.501c-1.19 1.925-3.028 4.106-4.084 4.845-1.789 1.254-1.324 1.82 6.832 8.308 17.442 13.877 36.921 26.905 57.901 38.725 10.605 5.974 37.738 18.773 47.569 22.438l5.719 2.131 1.117-4.149c2.361-8.769 2.657-8.367-10.054-13.676-31.394-13.113-65.499-33.141-91.252-53.587-5.913-4.695-10.939-8.536-11.168-8.536-.229 0-1.39 1.575-2.58 3.501m467.226 5.224c-2.047 1.766-2.008 1.851 7.399 16.275 5.202 7.975 10.001 14.358 10.666 14.184 4.064-1.064 3.491-2.722-5.923-17.136-5.191-7.948-9.584-14.597-9.761-14.775-.178-.178-1.249.476-2.381 1.452M697 837.294c-1.375.695-3.114 2.545-3.864 4.11-.932 1.942-1.605 2.455-2.123 1.617-.585-.947-1.256-.961-2.936-.062l-2.178 1.166 2.611 4.687c7.424 13.325 15.054 26.173 15.549 26.18.307.004 1.385-.596 2.395-1.335 1.734-1.268 1.522-1.899-3.79-11.28-6.566-11.598-7.7-15.575-5.221-18.314.937-1.036 2.796-2.157 4.131-2.492 1.752-.44 2.426-1.298 2.426-3.09 0-2.854-2.774-3.325-7-1.187m-47.699 22.786c-4.296 2.127-8.301 8.184-8.301 12.554 0 4.557 3.305 12.698 6.666 16.418 6.172 6.831 14.532 7.513 21.82 1.781 5.591-4.399 6.8-11.321 3.511-20.111-4.258-11.382-13.666-15.607-23.696-10.642m.622 5.843c-2.226 2.226-2.918 3.836-2.901 6.75.03 5.148 2.968 11.299 7.03 14.718 2.738 2.303 3.976 2.706 6.893 2.242 9.759-1.552 10.986-14.55 2.254-23.883-3.658-3.91-9.266-3.837-13.276.173m-261.148 3.579c-3.616 2.038-5.481 5.436-3.628 6.61 1.981 1.255 2.628 1.114 5.865-1.279 7.135-5.275 17.866-.326 15.494 7.147-.636 2.004-1.081 2.082-7.84 1.367-15.296-1.616-19.666.661-19.666 10.246 0 7.894 11.565 12.581 21.571 8.741 1.003-.384 1.429.195 1.429 1.942 0 1.84.632 2.612 2.416 2.953 2.261.432 2.443.134 2.823-4.634.223-2.802 1.668-9.311 3.212-14.464 2.636-8.8 2.713-9.565 1.269-12.593-.929-1.947-3.059-3.954-5.379-5.068-5.143-2.469-14.034-2.959-17.566-.968m212.226 5.621c-6.392 2.549-9.276 8.51-6.612 13.663 1.911 3.695 5.2 4.95 14.448 5.513 8.44.514 10.804 2.011 9.757 6.182-.441 1.759-1.82 3.133-4.097 4.085-4.986 2.083-8.253 1.769-11.088-1.066-2.645-2.645-4.058-3.008-6.264-1.61-3.383 2.143 5.102 9.119 11.073 9.104 4.45-.01 10.163-2.221 12.953-5.011 3.858-3.858 4.014-10.521.328-13.984-2.087-1.96-3.958-2.455-11.287-2.984-10.032-.723-11.212-1.202-11.212-4.551 0-5.194 10.561-8.007 13.844-3.687 1.179 1.551 2.305 2.008 3.906 1.584 3.09-.816 2.819-2.704-.827-5.772-2.388-2.009-4.123-2.575-7.75-2.526-2.57.035-5.798.512-7.172 1.06m-157.687 6.341c-1.752.762-4.447 3.291-5.989 5.621-2.275 3.438-2.871 5.593-3.167 11.456-.476 9.42 1.512 13.95 7.266 16.564 8.267 3.754 16.658 1.801 21.505-5.005l2.206-3.098-2.607-.991c-2.298-.874-2.958-.591-5.578 2.393-3.655 4.163-6.883 5.069-11.375 3.192-6.33-2.645-8.369-11.049-4.661-19.213 2.18-4.801 5.419-7.383 9.261-7.383 4.491 0 7.72 2.091 9.516 6.16 1.37 3.106 2.217 3.84 4.432 3.84 2.59 0 2.689-.168 1.842-3.123-1.447-5.045-3.846-7.92-8.293-9.939-4.915-2.232-9.936-2.397-14.358-.474m105.904 3.199c-5.861 2.889-7.718 6.717-7.718 15.911 0 7.069.331 8.575 2.661 12.094 4.662 7.042 12.399 9.077 20.511 5.394 4.368-1.983 6.755-4.78 7.836-9.181.544-2.217.269-2.69-1.791-3.084-2.03-.388-2.636.09-3.644 2.878-2.134 5.901-10.362 8.245-15.303 4.359-2.613-2.056-5.474-7.663-4.438-8.699.33-.331 6.128-1.294 12.884-2.14 6.756-.847 12.438-1.654 12.627-1.793.188-.14-.373-2.714-1.248-5.722-2.282-7.852-6.849-11.688-13.88-11.657-2.868.012-6.692.75-8.497 1.64m-52.718 1.684c-5.783 2.659-9.37 9.205-9.456 17.254-.151 14.093 12.084 22.602 23.936 16.647 3.481-1.749 8.02-7.349 8.02-9.896 0-2.786-4.358-1.294-7.732 2.648-2.932 3.426-3.997 4-7.412 4-8.095 0-11.314-4.466-10.657-14.788.368-5.779.758-6.784 3.623-9.344 5.147-4.599 14.351-3.01 15.791 2.727.546 2.175 1.034 2.459 3.263 1.9 1.441-.362 2.787-.825 2.992-1.029.751-.751-3.449-6.817-6.077-8.776-3.41-2.542-12.122-3.26-16.291-1.343m-110.83 3.126c-5.458 5.458 5.268 12.196 13.026 8.184 3.023-1.563 6.206-7.089 4.859-8.435-.393-.393-4.202-.873-8.465-1.066-6.233-.283-8.078-.025-9.42 1.317m164.987-.013c-1.681 1.274-4.922 8.587-4.153 9.371.179.182 4.639-.233 9.911-.923 10.674-1.396 11.649-2.389 7.133-7.262-1.933-2.085-3.363-2.639-6.75-2.614-2.364.017-5.127.66-6.141 1.428" fill="undefined" fill-rule="evenodd"/></svg>